<?xml version="1.0" standalone="no"?>
<!DOCTYPE svg PUBLIC "-//W3C//DTD SVG 20010904//EN"
 "http://www.w3.org/TR/2001/REC-SVG-20010904/DTD/svg10.dtd">
<svg version="1.0" xmlns="http://www.w3.org/2000/svg"
 width="64" height="64" viewBox="0 0 1093.000000 1007.000000"
 preserveAspectRatio="xMidYMid meet">

<g transform="translate(0.000000,1007.000000) scale(0.100000,-0.100000)"
fill="#000000" stroke="none">
<path d="M4973 9915 c-681 -63 -1394 -299 -1958 -649 -588 -364 -1068 -816
-1465 -1376 -371 -524 -658 -1191 -789 -1835 -60 -293 -82 -503 -88 -850 -9
-484 34 -856 148 -1293 39 -152 141 -475 157 -500 7 -10 22 -8 73 7 102 31
549 156 724 201 88 23 161 43 163 45 1 1 -10 36 -26 76 -39 99 -116 334 -142
437 -236 933 -60 1965 473 2767 124 187 278 388 309 403 14 6 78 69 141 140
530 586 1238 985 2007 1131 237 44 355 55 630 54 215 0 295 -4 423 -21 355
-49 631 -125 961 -263 233 -98 404 -191 636 -345 179 -119 295 -210 469 -367
147 -133 431 -443 431 -470 0 -4 -777 -8 -1727 -10 l-1728 -3 -108 -26 c-265
-66 -486 -188 -664 -367 -257 -259 -395 -634 -353 -961 47 -371 283 -645 612
-710 84 -16 175 -19 908 -24 461 -4 840 -11 872 -17 186 -32 365 -136 484
-279 54 -65 128 -212 149 -293 93 -368 -119 -763 -487 -907 -141 -55 -201 -60
-727 -60 -486 0 -765 -8 -1181 -35 -997 -65 -2188 -236 -3165 -456 -181 -41
-847 -205 -960 -237 -20 -6 79 -13 290 -21 176 -7 406 -16 510 -22 105 -5 209
-9 231 -9 l42 0 53 -93 c66 -115 250 -390 321 -479 162 -205 506 -560 718
-742 616 -528 1326 -897 2066 -1071 486 -115 1052 -144 1554 -80 744 96 1506
409 2125 873 301 226 719 630 892 862 298 401 567 888 723 1310 77 207 149
443 154 500 4 48 18 100 28 100 5 0 8 6 6 13 -3 6 -10 12 -17 12 -6 0 -16 7
-21 15 -5 8 -10 11 -10 7 0 -5 -7 -1 -16 8 -13 12 -19 13 -31 4 -12 -10 -19
-7 -38 15 -14 16 -26 23 -30 17 -9 -15 -72 -14 -78 2 -4 9 -8 9 -15 -2 -8 -11
-10 -11 -15 0 -4 10 -6 10 -6 2 -1 -19 -19 -16 -25 5 -3 10 -14 18 -24 19 -32
3 -46 8 -66 25 -10 10 -23 15 -28 12 -4 -3 -8 0 -8 5 0 6 5 11 10 11 6 0 10 4
10 8 0 5 -41 8 -90 8 -50 -1 -90 2 -90 6 0 4 -6 5 -14 2 -15 -6 -40 29 -29 40
3 3 -6 6 -21 6 -16 0 -25 4 -21 10 6 9 -70 16 -148 13 -45 -2 -83 -22 -95 -51
-10 -25 -10 -24 -6 13 2 22 -12 -16 -31 -85 -126 -446 -279 -783 -521 -1146
-544 -821 -1367 -1412 -2234 -1604 -273 -61 -419 -79 -695 -87 -842 -23 -1633
267 -2350 863 -139 115 -505 473 -505 493 0 9 17 11 63 7 125 -10 2340 -28
2962 -23 683 4 687 5 881 58 515 141 916 560 1035 1079 29 127 36 329 15 465
-20 126 -77 309 -132 416 -207 412 -594 697 -1060 780 -100 18 -177 23 -479
28 -339 7 -363 8 -416 29 -76 30 -142 90 -176 160 -24 48 -28 69 -28 137 0 97
22 151 89 223 87 93 170 120 486 158 1147 136 2397 317 3205 465 501 92 1156
228 1455 302 l135 34 -55 6 c-30 4 -219 11 -420 17 -201 6 -406 13 -456 16
l-92 6 -42 96 c-482 1099 -1379 2002 -2463 2481 -427 189 -879 309 -1352 361
-162 18 -638 21 -812 5z m265 -417 l-3 -73 -245 -17 c-226 -17 -246 -20 -262
-39 -22 -27 -23 -43 -1 -64 10 -11 26 -15 42 -12 60 12 359 30 393 23 46 -8
96 -49 114 -93 21 -50 18 -151 -6 -191 -25 -41 -73 -70 -125 -76 -106 -13
-547 -47 -551 -43 -2 2 -7 34 -11 71 -5 53 -3 66 8 66 8 0 61 4 119 10 58 5
168 14 244 20 77 6 146 15 153 21 19 17 16 67 -5 78 -11 6 -61 6 -137 -1 -207
-18 -305 -16 -344 7 -55 33 -73 65 -79 143 -6 93 19 141 92 177 52 24 62 25
516 58 25 2 55 4 68 5 22 2 23 0 20 -70z m602 -8 c247 -33 302 -56 335 -143
15 -41 15 -52 -5 -192 -17 -125 -25 -154 -46 -182 -55 -72 -92 -77 -364 -43
-212 26 -268 44 -306 99 -19 29 -24 48 -24 101 1 103 26 266 47 302 31 53 115
91 183 82 14 -2 95 -13 180 -24z m842 -196 c134 -47 408 -154 408 -160 0 -15
-52 -104 -60 -104 -6 0 -107 36 -225 80 -118 44 -221 80 -230 80 -21 0 -42
-47 -29 -67 5 -9 88 -44 183 -79 96 -35 185 -71 198 -79 94 -62 78 -228 -27
-283 -61 -31 -78 -28 -365 74 -132 47 -246 87 -252 89 -18 6 -16 19 8 76 17
38 26 48 38 44 88 -35 446 -155 461 -155 12 0 25 11 32 26 11 23 10 29 -9 43
-11 10 -96 44 -188 77 -201 70 -244 100 -252 176 -4 36 0 58 20 102 49 105
117 120 289 60z m-2832 -74 c56 -15 93 -64 154 -203 61 -140 67 -176 36 -237
-24 -47 -52 -67 -155 -113 -44 -19 -127 -56 -185 -83 -73 -33 -122 -49 -160
-52 -85 -6 -112 17 -187 163 -34 66 -67 137 -73 158 -13 47 1 104 35 146 44
52 413 227 485 230 8 1 31 -4 50 -9z m3529 -243 c4 -12 19 -76 32 -142 13 -66
24 -122 26 -124 1 -2 68 13 148 34 l145 38 70 -47 c38 -25 70 -50 70 -54 0 -4
-33 -15 -72 -24 -118 -28 -338 -87 -347 -93 -5 -3 -30 -41 -56 -85 -26 -44
-52 -80 -57 -80 -12 0 -138 69 -138 75 0 2 23 41 51 86 l52 83 -12 61 c-6 33
-26 129 -45 213 -18 83 -31 154 -29 156 9 9 155 -78 162 -97z m-4261 -131 c18
-24 32 -50 32 -58 -1 -7 -43 -42 -95 -77 -52 -35 -95 -66 -95 -68 0 -2 13 -21
28 -41 34 -43 157 -212 191 -260 13 -19 20 -37 15 -41 -5 -5 -35 -27 -66 -49
l-56 -41 -122 164 c-67 91 -125 165 -130 165 -4 0 -43 -25 -86 -56 -43 -31
-84 -58 -90 -61 -15 -5 -78 83 -71 100 5 13 187 145 391 284 67 45 121 82 122
82 0 1 15 -19 32 -43z m5083 -424 l52 -48 -28 -142 c-15 -78 -30 -142 -34
-142 -16 0 -131 105 -127 115 10 28 18 105 10 105 -5 0 -101 -27 -214 -59
l-205 -59 -42 30 c-23 17 -56 42 -74 57 l-32 27 299 81 c164 45 309 82 321 82
13 1 43 -18 74 -47z m-5696 -111 c17 -10 76 -62 132 -115 180 -171 175 -192
-116 -490 -110 -114 -145 -136 -208 -136 -52 0 -75 14 -191 115 -163 142 -172
208 -47 350 117 134 246 263 277 278 45 22 116 21 153 -2z m5496 -136 c28 -22
81 -65 118 -96 l68 -57 -21 -111 c-11 -61 -23 -111 -27 -111 -4 0 -33 21 -64
47 l-58 46 7 58 6 58 -97 78 c-53 43 -101 81 -107 85 -6 4 -7 10 -4 14 8 8
109 33 121 30 5 -1 31 -19 58 -41z m689 -236 l29 -35 -154 -115 c-85 -63 -154
-116 -154 -119 -1 -3 41 -57 92 -120 51 -64 103 -130 116 -148 l22 -32 -28
-11 c-15 -6 -46 -13 -68 -16 -39 -5 -41 -3 -80 49 -22 29 -87 111 -144 182
-57 71 -104 136 -105 143 -1 7 89 80 199 163 l200 151 23 -28 c13 -15 36 -44
52 -64z m551 -3791 c-10 -11 -11 -9 -5 6 6 15 4 17 -6 11 -9 -6 -11 -4 -5 4 5
9 10 10 18 2 8 -8 7 -14 -2 -23z m209 -38 c0 -5 -7 -7 -15 -4 -8 4 -15 8 -15
10 0 2 7 4 15 4 8 0 15 -4 15 -10z"/>
<path d="M5631 9352 c-13 -25 -31 -135 -31 -193 0 -67 13 -74 170 -94 74 -9
144 -19 156 -21 42 -11 62 23 78 136 22 151 26 146 -169 175 -139 21 -192 20
-204 -3z"/>
<path d="M3606 9010 c-70 -32 -134 -65 -142 -71 -24 -20 -16 -62 31 -157 34
-71 50 -93 69 -98 19 -4 60 10 158 55 133 62 168 84 168 106 0 13 -64 159 -88
203 -20 34 -55 28 -196 -38z"/>
<path d="M2266 8048 c-131 -140 -132 -143 -41 -230 84 -79 101 -91 123 -84 30
10 242 231 242 253 0 11 -33 51 -79 96 -110 108 -111 107 -245 -35z"/>
<path d="M9002 4390 c0 -14 2 -19 5 -12 2 6 2 18 0 25 -3 6 -5 1 -5 -13z"/>
<path d="M8992 4335 c0 -16 2 -22 5 -12 2 9 2 23 0 30 -3 6 -5 -1 -5 -18z"/>
<path d="M8982 4280 c0 -14 2 -19 5 -12 2 6 2 18 0 25 -3 6 -5 1 -5 -13z"/>
<path d="M8971 4234 c0 -11 3 -14 6 -6 3 7 2 16 -1 19 -3 4 -6 -2 -5 -13z"/>
</g>
</svg>
