<svg xmlns="http://www.w3.org/2000/svg" viewBox="0 0 24 24" fill="#1e3a8a" width="24" height="24">
  <path d="M18.92 11.01C18.72 10.42 18.16 10 17.5 10H6.5c-.66 0-1.21.42-1.42 1.01L3 17v5c0 .55.45 1 1 1h1c.55 0 1-.45 1-1v-1h12v1c0 .55.45 1 1 1h1c.55 0 1-.45 1-1v-5l-2.08-5.99zM6.5 12h11L19 17H5l1.5-5z"/>
  <circle cx="7.5" cy="18.5" r="1.5" fill="#3b82f6"/>
  <circle cx="16.5" cy="18.5" r="1.5" fill="#3b82f6"/>
  <path d="M12 2C8.48 2 5.6 4.88 5.6 8.4s2.88 6.4 6.4 6.4 6.4-2.88 6.4-6.4S15.52 2 12 2zm1 9.6h-2v-3.8h2v3.8zm0-5.1h-2v-1.9h2v1.9z" fill="#3b82f6" opacity="0.8"/>
</svg>
