<svg xmlns="http://www.w3.org/2000/svg" viewBox="0 0 24 24" fill="#ea580c" width="24" height="24">
  <path d="M18.92 11.01C18.72 10.42 18.16 10 17.5 10H6.5c-.66 0-1.21.42-1.42 1.01L3 17v5c0 .55.45 1 1 1h1c.55 0 1-.45 1-1v-1h12v1c0 .55.45 1 1 1h1c.55 0 1-.45 1-1v-5l-2.08-5.99zM6.5 12h11L19 17H5l1.5-5z"/>
  <circle cx="7.5" cy="18.5" r="1.5" fill="#f97316"/>
  <circle cx="16.5" cy="18.5" r="1.5" fill="#f97316"/>
  <path d="M12 1.5l2.6 5.3 5.9.8-4.3 4.2 1 5.9-5.2-2.7-5.2 2.7 1-5.9-4.3-4.2 5.9-.8z" fill="#f97316" opacity="0.8"/>
</svg>
